<svg xmlns="http://www.w3.org/2000/svg" viewBox="0 0 512 512">
  <!-- Black rounded app background -->
  <rect width="512" height="512" rx="96" fill="#000000"/>
  <!-- White baseball -->
  <circle cx="256" cy="256" r="200" fill="#FFFFFF" stroke="#E8D9C0" stroke-width="4"/>
  <!-- Left stitch curve -->
  <path d="M 172,68 C 196,150 196,362 172,444" fill="none" stroke="#CC2222" stroke-width="16" stroke-linecap="round"/>
  <!-- Right stitch curve -->
  <path d="M 340,68 C 316,150 316,362 340,444" fill="none" stroke="#CC2222" stroke-width="16" stroke-linecap="round"/>
  <!-- Left stitch marks -->
  <line x1="155" y1="145" x2="198" y2="133" stroke="#CC2222" stroke-width="10" stroke-linecap="round"/>
  <line x1="150" y1="195" x2="193" y2="194" stroke="#CC2222" stroke-width="10" stroke-linecap="round"/>
  <line x1="148" y1="245" x2="191" y2="250" stroke="#CC2222" stroke-width="10" stroke-linecap="round"/>
  <line x1="148" y1="295" x2="191" y2="286" stroke="#CC2222" stroke-width="10" stroke-linecap="round"/>
  <line x1="151" y1="345" x2="193" y2="340" stroke="#CC2222" stroke-width="10" stroke-linecap="round"/>
  <!-- Right stitch marks -->
  <line x1="357" y1="145" x2="314" y2="133" stroke="#CC2222" stroke-width="10" stroke-linecap="round"/>
  <line x1="362" y1="195" x2="319" y2="194" stroke="#CC2222" stroke-width="10" stroke-linecap="round"/>
  <line x1="364" y1="245" x2="321" y2="250" stroke="#CC2222" stroke-width="10" stroke-linecap="round"/>
  <line x1="364" y1="295" x2="321" y2="286" stroke="#CC2222" stroke-width="10" stroke-linecap="round"/>
  <line x1="361" y1="345" x2="319" y2="340" stroke="#CC2222" stroke-width="10" stroke-linecap="round"/>
</svg>
